<svg width="16" height="17" viewBox="0 0 16 17" fill="none" xmlns="http://www.w3.org/2000/svg">
<path d="M7.88496 14.4517L2.04405 8.6108C1.57814 8.14489 1.26754 7.60322 1.11223 6.9858C0.960718 6.36837 0.962612 5.75473 1.11792 5.14489C1.27322 4.53125 1.58193 3.99716 2.04405 3.54261C2.51754 3.0767 3.05731 2.76799 3.66337 2.61648C4.27322 2.46117 4.88117 2.46117 5.48723 2.61648C6.09708 2.77178 6.63875 3.08049 7.11223 3.54261L7.88496 4.29261L8.65769 3.54261C9.13496 3.08049 9.67663 2.77178 10.2827 2.61648C10.8887 2.46117 11.4948 2.46117 12.1009 2.61648C12.7107 2.76799 13.2524 3.0767 13.7259 3.54261C14.188 3.99716 14.4967 4.53125 14.652 5.14489C14.8073 5.75473 14.8073 6.36837 14.652 6.9858C14.5005 7.60322 14.1918 8.14489 13.7259 8.6108L7.88496 14.4517Z" fill="white"/>
</svg>
